<?xml version="1.0" encoding="UTF-8"?>
<svg width="131px" height="129px" viewBox="0 0 131 129" version="1.1" xmlns="http://www.w3.org/2000/svg" xmlns:xlink="http://www.w3.org/1999/xlink">
    <!-- Generator: Sketch 60.1 (88133) - https://sketch.com -->
    <title>shape-4b</title>
    <desc>Created with Sketch.</desc>
    <g id="Patterns" stroke="none" stroke-width="1" fill="none" fill-rule="evenodd">
        <g id="Waihou" transform="translate(-1315.000000, -731.000000)" fill="#FFFFFF">
            <g transform="translate(-652.000000, -606.000000)" id="shape-4b">
                <g transform="translate(1939.779491, 1311.901487)">
                    <path d="M34.1937781,29.5040511 C34.1937781,31.1624188 32.1710583,32.5071574 30.5186957,32.5071574 C28.866333,32.5071574 27.541594,31.1624188 27.541594,29.5040511 C27.541594,27.8456834 28.866333,25.4454898 30.5186957,25.4454898 C32.1710583,25.4454898 34.1937781,27.8456834 34.1937781,29.5040511 Z" id="Shape"></path>
                    <path d="M47.9539704,29.5040511 C47.9539704,31.1624188 45.9312506,32.5071574 44.2931325,32.5071574 C42.6407698,32.5071574 41.3017863,31.1624188 41.3017863,29.5040511 C41.3017863,27.8456834 42.6407698,25.4454898 44.2931325,25.4454898 C45.9312506,25.4454898 47.9539704,27.8456834 47.9539704,29.5040511 Z" id="Shape"></path>
                    <path d="M61.7141627,29.5040511 C61.7141627,31.1624188 59.7056874,32.5071574 58.0533248,32.5071574 C56.4009621,32.5071574 55.0619786,31.1624188 55.0619786,29.5040511 C55.0619786,27.8456834 56.4009621,25.4454898 58.0533248,25.4454898 C59.7056874,25.4454898 61.7141627,27.8456834 61.7141627,29.5040511 Z" id="Shape"></path>
                    <path d="M103.023229,29.5040511 C103.023229,31.1624188 101.000509,32.5071574 99.3481462,32.5071574 C97.6957836,32.5071574 96.3568,31.1624188 96.3568,29.5040511 C96.3568,27.8456834 97.6957836,25.4454898 99.3481462,25.4454898 C101.000509,25.4454898 103.023229,27.8456834 103.023229,29.5040511 Z" id="Shape"></path>
                    <path d="M144.31805,29.5040511 C144.31805,31.1624188 142.29533,32.5071574 140.642968,32.5071574 C139.004849,32.5071574 137.665866,31.1624188 137.665866,29.5040511 C137.665866,27.8456834 139.004849,25.4454898 140.642968,25.4454898 C142.29533,25.4454898 144.31805,27.8456834 144.31805,29.5040511 Z" id="Shape"></path>
                    <path d="M158.078242,29.5040511 C158.078242,31.1624188 156.069767,32.5071574 154.417404,32.5071574 C152.765042,32.5071574 151.426058,31.1624188 151.426058,29.5040511 C151.426058,27.8456834 152.765042,25.4454898 154.417404,25.4454898 C156.069767,25.4454898 158.078242,27.8456834 158.078242,29.5040511 Z" id="Shape"></path>
                    <path d="M34.1937781,42.2153392 C34.1937781,43.8737069 32.1710583,45.2184455 30.5186957,45.2184455 C28.866333,45.2184455 27.541594,43.8737069 27.541594,42.2153392 C27.541594,40.5569715 28.866333,38.1567779 30.5186957,38.1567779 C32.1710583,38.1567779 34.1937781,40.5569715 34.1937781,42.2153392 Z" id="Shape"></path>
                    <path d="M47.9539704,42.2153392 C47.9539704,43.8737069 45.9312506,45.2184455 44.2931325,45.2184455 C42.6407698,45.2184455 41.3017863,43.8737069 41.3017863,42.2153392 C41.3017863,40.5569715 42.6407698,38.1567779 44.2931325,38.1567779 C45.9312506,38.1567779 47.9539704,40.5569715 47.9539704,42.2153392 Z" id="Shape"></path>
                    <path d="M75.4885995,42.2153392 C75.4885995,43.8737069 73.4658797,45.2184455 71.8135171,45.2184455 C70.1753989,45.2184455 68.8364154,43.8737069 68.8364154,42.2153392 C68.8364154,40.5569715 70.1753989,38.1567779 71.8135171,38.1567779 C73.4658797,38.1567779 75.4885995,40.5569715 75.4885995,42.2153392 Z" id="Shape"></path>
                    <path d="M89.2487918,42.2153392 C89.2487918,43.8737069 87.2403165,45.2184455 85.5879539,45.2184455 C83.9355913,45.2184455 82.5966077,43.8737069 82.5966077,42.2153392 C82.5966077,40.5569715 83.9355913,38.1567779 85.5879539,38.1567779 C87.2403165,38.1567779 89.2487918,40.5569715 89.2487918,42.2153392 Z" id="Shape"></path>
                    <path d="M103.023229,42.2153392 C103.023229,43.8737069 101.000509,45.2184455 99.3481462,45.2184455 C97.6957836,45.2184455 96.3568,43.8737069 96.3568,42.2153392 C96.3568,40.5569715 97.6957836,38.1567779 99.3481462,38.1567779 C101.000509,38.1567779 103.023229,40.5569715 103.023229,42.2153392 Z" id="Shape"></path>
                    <path d="M158.078242,42.2153392 C158.078242,43.8737069 156.069767,45.2184455 154.417404,45.2184455 C152.765042,45.2184455 151.426058,43.8737069 151.426058,42.2153392 C151.426058,40.5569715 152.765042,38.1567779 154.417404,38.1567779 C156.069767,38.1567779 158.078242,40.5569715 158.078242,42.2153392 Z" id="Shape"></path>
                    <path d="M34.1937781,54.9266273 C34.1937781,56.584995 32.1710583,57.9297336 30.5186957,57.9297336 C28.866333,57.9297336 27.541594,56.584995 27.541594,54.9266273 C27.541594,53.2682596 28.866333,50.868066 30.5186957,50.868066 C32.1710583,50.868066 34.1937781,53.2682596 34.1937781,54.9266273 Z" id="Shape"></path>
                    <path d="M61.7141627,54.9266273 C61.7141627,56.584995 59.7056874,57.9297336 58.0533248,57.9297336 C56.4009621,57.9297336 55.0619786,56.584995 55.0619786,54.9266273 C55.0619786,53.2682596 56.4009621,50.868066 58.0533248,50.868066 C59.7056874,50.868066 61.7141627,53.2682596 61.7141627,54.9266273 Z" id="Shape"></path>
                    <path d="M75.4885995,54.9266273 C75.4885995,56.584995 73.4658797,57.9297336 71.8135171,57.9297336 C70.1753989,57.9297336 68.8364154,56.584995 68.8364154,54.9266273 C68.8364154,53.2682596 70.1753989,50.868066 71.8135171,50.868066 C73.4658797,50.868066 75.4885995,53.2682596 75.4885995,54.9266273 Z" id="Shape"></path>
                    <path d="M89.2487918,54.9266273 C89.2487918,56.584995 87.2403165,57.9297336 85.5879539,57.9297336 C83.9355913,57.9297336 82.5966077,56.584995 82.5966077,54.9266273 C82.5966077,53.2682596 83.9355913,50.868066 85.5879539,50.868066 C87.2403165,50.868066 89.2487918,53.2682596 89.2487918,54.9266273 Z" id="Shape"></path>
                    <path d="M103.023229,54.9266273 C103.023229,56.584995 101.000509,57.9297336 99.3481462,57.9297336 C97.6957836,57.9297336 96.3568,56.584995 96.3568,54.9266273 C96.3568,53.2682596 97.6957836,50.868066 99.3481462,50.868066 C101.000509,50.868066 103.023229,53.2682596 103.023229,54.9266273 Z" id="Shape"></path>
                    <path d="M116.783421,54.9266273 C116.783421,56.584995 114.760701,57.9297336 113.122583,57.9297336 C111.47022,57.9297336 110.131237,56.584995 110.131237,54.9266273 C110.131237,53.2682596 111.47022,50.868066 113.122583,50.868066 C114.760701,50.868066 116.783421,53.2682596 116.783421,54.9266273 Z" id="Shape"></path>
                    <path d="M130.543613,54.9266273 C130.543613,56.584995 128.535138,57.9297336 126.882775,57.9297336 C125.230413,57.9297336 123.891429,56.584995 123.891429,54.9266273 C123.891429,53.2682596 125.230413,50.868066 126.882775,50.868066 C128.535138,50.868066 130.543613,53.2682596 130.543613,54.9266273 Z" id="Shape"></path>
                    <path d="M34.1937781,67.6379154 C34.1937781,69.2962831 32.1710583,70.6410217 30.5186957,70.6410217 C28.866333,70.6410217 27.541594,69.2962831 27.541594,67.6379154 C27.541594,65.9795477 28.866333,63.5793541 30.5186957,63.5793541 C32.1710583,63.5793541 34.1937781,65.9795477 34.1937781,67.6379154 Z" id="Shape"></path>
                    <path d="M47.9539704,67.6379154 C47.9539704,69.2962831 45.9312506,70.6410217 44.2931325,70.6410217 C42.6407698,70.6410217 41.3017863,69.2962831 41.3017863,67.6379154 C41.3017863,65.9795477 42.6407698,63.5793541 44.2931325,63.5793541 C45.9312506,63.5793541 47.9539704,65.9795477 47.9539704,67.6379154 Z" id="Shape"></path>
                    <path d="M61.7141627,67.6379154 C61.7141627,69.2962831 59.7056874,70.6410217 58.0533248,70.6410217 C56.4009621,70.6410217 55.0619786,69.2962831 55.0619786,67.6379154 C55.0619786,65.9795477 56.4009621,63.5793541 58.0533248,63.5793541 C59.7056874,63.5793541 61.7141627,65.9795477 61.7141627,67.6379154 Z" id="Shape"></path>
                    <path d="M75.4885995,67.6379154 C75.4885995,69.2962831 73.4658797,70.6410217 71.8135171,70.6410217 C70.1753989,70.6410217 68.8364154,69.2962831 68.8364154,67.6379154 C68.8364154,65.9795477 70.1753989,63.5793541 71.8135171,63.5793541 C73.4658797,63.5793541 75.4885995,65.9795477 75.4885995,67.6379154 Z" id="Shape"></path>
                    <path d="M89.2487918,67.6379154 C89.2487918,69.2962831 87.2403165,70.6410217 85.5879539,70.6410217 C83.9355913,70.6410217 82.5966077,69.2962831 82.5966077,67.6379154 C82.5966077,65.9795477 83.9355913,63.5793541 85.5879539,63.5793541 C87.2403165,63.5793541 89.2487918,65.9795477 89.2487918,67.6379154 Z" id="Shape"></path>
                    <path d="M103.023229,67.6379154 C103.023229,69.2962831 101.000509,70.6410217 99.3481462,70.6410217 C97.6957836,70.6410217 96.3568,69.2962831 96.3568,67.6379154 C96.3568,65.9795477 97.6957836,63.5793541 99.3481462,63.5793541 C101.000509,63.5793541 103.023229,65.9795477 103.023229,67.6379154 Z" id="Shape"></path>
                    <path d="M116.783421,67.6379154 C116.783421,69.2962831 114.760701,70.6410217 113.122583,70.6410217 C111.47022,70.6410217 110.131237,69.2962831 110.131237,67.6379154 C110.131237,65.9795477 111.47022,63.5793541 113.122583,63.5793541 C114.760701,63.5793541 116.783421,65.9795477 116.783421,67.6379154 Z" id="Shape"></path>
                    <path d="M130.543613,67.6379154 C130.543613,69.2962831 128.535138,70.6410217 126.882775,70.6410217 C125.230413,70.6410217 123.891429,69.2962831 123.891429,67.6379154 C123.891429,65.9795477 125.230413,63.5793541 126.882775,63.5793541 C128.535138,63.5793541 130.543613,65.9795477 130.543613,67.6379154 Z" id="Shape"></path>
                    <path d="M144.31805,67.6379154 C144.31805,69.2962831 142.29533,70.6410217 140.642968,70.6410217 C139.004849,70.6410217 137.665866,69.2962831 137.665866,67.6379154 C137.665866,65.9795477 139.004849,63.5793541 140.642968,63.5793541 C142.29533,63.5793541 144.31805,65.9795477 144.31805,67.6379154 Z" id="Shape"></path>
                    <path d="M158.078242,67.6379154 C158.078242,69.2962831 156.069767,70.6410217 154.417404,70.6410217 C152.765042,70.6410217 151.426058,69.2962831 151.426058,67.6379154 C151.426058,65.9795477 152.765042,63.5793541 154.417404,63.5793541 C156.069767,63.5793541 158.078242,65.9795477 158.078242,67.6379154 Z" id="Shape"></path>
                    <path d="M116.783421,42.7366223 C116.783421,44.39499 114.760701,45.7397286 113.122583,45.7397286 C111.47022,45.7397286 110.131237,44.39499 110.131237,42.7366223 C110.131237,41.0782546 111.47022,38.678061 113.122583,38.678061 C114.760701,38.678061 116.783421,41.0782546 116.783421,42.7366223 Z" id="Shape"></path>
                    <path d="M130.543613,42.7366223 C130.543613,44.39499 128.535138,45.7397286 126.882775,45.7397286 C125.230413,45.7397286 123.891429,44.39499 123.891429,42.7366223 C123.891429,41.0782546 125.230413,38.678061 126.882775,38.678061 C128.535138,38.678061 130.543613,41.0782546 130.543613,42.7366223 Z" id="Shape"></path>
                    <path d="M144.31805,55.4479104 C144.31805,57.1062781 142.29533,58.4510167 140.642968,58.4510167 C139.004849,58.4510167 137.665866,57.1062781 137.665866,55.4479104 C137.665866,53.7895427 139.004849,51.3893491 140.642968,51.3893491 C142.29533,51.3893491 144.31805,53.7895427 144.31805,55.4479104 Z" id="Shape"></path>
                    <path d="M47.9539704,80.3492035 C47.9539704,82.0075712 45.9312506,83.3523098 44.2931325,83.3523098 C42.6407698,83.3523098 41.3017863,82.0075712 41.3017863,80.3492035 C41.3017863,78.6908358 42.6407698,76.2892101 44.2931325,76.2892101 C45.9312506,76.2892101 47.9539704,78.6908358 47.9539704,80.3492035 Z" id="Shape"></path>
                    <path d="M61.7141627,80.3492035 C61.7141627,82.0075712 59.7056874,83.3523098 58.0533248,83.3523098 C56.4009621,83.3523098 55.0619786,82.0075712 55.0619786,80.3492035 C55.0619786,78.6908358 56.4009621,76.2892101 58.0533248,76.2892101 C59.7056874,76.2892101 61.7141627,78.6908358 61.7141627,80.3492035 Z" id="Shape"></path>
                    <path d="M75.4885995,80.3492035 C75.4885995,82.0075712 73.4658797,83.3523098 71.8135171,83.3523098 C70.1753989,83.3523098 68.8364154,82.0075712 68.8364154,80.3492035 C68.8364154,78.6908358 70.1753989,76.2892101 71.8135171,76.2892101 C73.4658797,76.2892101 75.4885995,78.6908358 75.4885995,80.3492035 Z" id="Shape"></path>
                    <path d="M89.2487918,80.3492035 C89.2487918,82.0075712 87.2403165,83.3523098 85.5879539,83.3523098 C83.9355913,83.3523098 82.5966077,82.0075712 82.5966077,80.3492035 C82.5966077,78.6908358 83.9355913,76.2892101 85.5879539,76.2892101 C87.2403165,76.2892101 89.2487918,78.6908358 89.2487918,80.3492035 Z" id="Shape"></path>
                    <path d="M103.023229,80.3492035 C103.023229,82.0075712 101.000509,83.3523098 99.3481462,83.3523098 C97.6957836,83.3523098 96.3568,82.0075712 96.3568,80.3492035 C96.3568,78.6908358 97.6957836,76.2892101 99.3481462,76.2892101 C101.000509,76.2892101 103.023229,78.6908358 103.023229,80.3492035 Z" id="Shape"></path>
                    <path d="M116.783421,80.3492035 C116.783421,82.0075712 114.760701,83.3523098 113.122583,83.3523098 C111.47022,83.3523098 110.131237,82.0075712 110.131237,80.3492035 C110.131237,78.6908358 111.47022,76.2892101 113.122583,76.2892101 C114.760701,76.2892101 116.783421,78.6908358 116.783421,80.3492035 Z" id="Shape"></path>
                    <path d="M130.543613,80.3492035 C130.543613,82.0075712 128.535138,83.3523098 126.882775,83.3523098 C125.230413,83.3523098 123.891429,82.0075712 123.891429,80.3492035 C123.891429,78.6908358 125.230413,76.2892101 126.882775,76.2892101 C128.535138,76.2892101 130.543613,78.6908358 130.543613,80.3492035 Z" id="Shape"></path>
                    <path d="M144.31805,80.3492035 C144.31805,82.0075712 142.29533,83.3523098 140.642968,83.3523098 C139.004849,83.3523098 137.665866,82.0075712 137.665866,80.3492035 C137.665866,78.6908358 139.004849,76.2892101 140.642968,76.2892101 C142.29533,76.2892101 144.31805,78.6908358 144.31805,80.3492035 Z" id="Shape"></path>
                    <path d="M158.078242,80.3492035 C158.078242,82.0075712 156.069767,83.3523098 154.417404,83.3523098 C152.765042,83.3523098 151.426058,82.0075712 151.426058,80.3492035 C151.426058,78.6908358 152.765042,76.2892101 154.417404,76.2892101 C156.069767,76.2892101 158.078242,78.6908358 158.078242,80.3492035 Z" id="Shape"></path>
                    <path d="M47.9539704,93.0604916 C47.9539704,94.7188593 45.9312506,96.0635979 44.2931325,96.0635979 C42.6407698,96.0635979 41.3017863,94.7188593 41.3017863,93.0604916 C41.3017863,91.4021239 42.6407698,89.0004982 44.2931325,89.0004982 C45.9312506,89.0004982 47.9539704,91.4021239 47.9539704,93.0604916 Z" id="Shape"></path>
                    <path d="M61.7141627,93.0604916 C61.7141627,94.7188593 59.7056874,96.0635979 58.0533248,96.0635979 C56.4009621,96.0635979 55.0619786,94.7188593 55.0619786,93.0604916 C55.0619786,91.4021239 56.4009621,89.0004982 58.0533248,89.0004982 C59.7056874,89.0004982 61.7141627,91.4021239 61.7141627,93.0604916 Z" id="Shape"></path>
                    <path d="M75.4885995,93.0604916 C75.4885995,94.7188593 73.4658797,96.0635979 71.8135171,96.0635979 C70.1753989,96.0635979 68.8364154,94.7188593 68.8364154,93.0604916 C68.8364154,91.4021239 70.1753989,89.0004982 71.8135171,89.0004982 C73.4658797,89.0004982 75.4885995,91.4021239 75.4885995,93.0604916 Z" id="Shape"></path>
                    <path d="M89.2487918,93.0604916 C89.2487918,94.7188593 87.2403165,96.0635979 85.5879539,96.0635979 C83.9355913,96.0635979 82.5966077,94.7188593 82.5966077,93.0604916 C82.5966077,91.4021239 83.9355913,89.0004982 85.5879539,89.0004982 C87.2403165,89.0004982 89.2487918,91.4021239 89.2487918,93.0604916 Z" id="Shape"></path>
                    <path d="M103.023229,93.0604916 C103.023229,94.7188593 101.000509,96.0635979 99.3481462,96.0635979 C97.6957836,96.0635979 96.3568,94.7188593 96.3568,93.0604916 C96.3568,91.4021239 97.6957836,89.0004982 99.3481462,89.0004982 C101.000509,89.0004982 103.023229,91.4021239 103.023229,93.0604916 Z" id="Shape"></path>
                    <path d="M116.783421,93.0604916 C116.783421,94.7188593 114.760701,96.0635979 113.122583,96.0635979 C111.47022,96.0635979 110.131237,94.7188593 110.131237,93.0604916 C110.131237,91.4021239 111.47022,89.0004982 113.122583,89.0004982 C114.760701,89.0004982 116.783421,91.4021239 116.783421,93.0604916 Z" id="Shape"></path>
                    <path d="M130.543613,93.0604916 C130.543613,94.7188593 128.535138,96.0635979 126.882775,96.0635979 C125.230413,96.0635979 123.891429,94.7188593 123.891429,93.0604916 C123.891429,91.4021239 125.230413,89.0004982 126.882775,89.0004982 C128.535138,89.0004982 130.543613,91.4021239 130.543613,93.0604916 Z" id="Shape"></path>
                    <path d="M144.31805,93.0604916 C144.31805,94.7188593 142.29533,96.0635979 140.642968,96.0635979 C139.004849,96.0635979 137.665866,94.7188593 137.665866,93.0604916 C137.665866,91.4021239 139.004849,89.0004982 140.642968,89.0004982 C142.29533,89.0004982 144.31805,91.4021239 144.31805,93.0604916 Z" id="Shape"></path>
                    <path d="M158.078242,93.0604916 C158.078242,94.7188593 156.069767,96.0635979 154.417404,96.0635979 C152.765042,96.0635979 151.426058,94.7188593 151.426058,93.0604916 C151.426058,91.4021239 152.765042,89.0004982 154.417404,89.0004982 C156.069767,89.0004982 158.078242,91.4021239 158.078242,93.0604916 Z" id="Shape"></path>
                    <path d="M34.1937781,105.77178 C34.1937781,107.430147 32.1710583,108.774886 30.5186957,108.774886 C28.866333,108.774886 27.541594,107.430147 27.541594,105.77178 C27.541594,104.113412 28.866333,101.711786 30.5186957,101.711786 C32.1710583,101.711786 34.1937781,104.113412 34.1937781,105.77178 Z" id="Shape"></path>
                    <path d="M47.9539704,105.77178 C47.9539704,107.430147 45.9312506,108.774886 44.2931325,108.774886 C42.6407698,108.774886 41.3017863,107.430147 41.3017863,105.77178 C41.3017863,104.113412 42.6407698,101.711786 44.2931325,101.711786 C45.9312506,101.711786 47.9539704,104.113412 47.9539704,105.77178 Z" id="Shape"></path>
                    <path d="M61.7141627,105.77178 C61.7141627,107.430147 59.7056874,108.774886 58.0533248,108.774886 C56.4009621,108.774886 55.0619786,107.430147 55.0619786,105.77178 C55.0619786,104.113412 56.4009621,101.711786 58.0533248,101.711786 C59.7056874,101.711786 61.7141627,104.113412 61.7141627,105.77178 Z" id="Shape"></path>
                    <path d="M75.4885995,105.77178 C75.4885995,107.430147 73.4658797,108.774886 71.8135171,108.774886 C70.1753989,108.774886 68.8364154,107.430147 68.8364154,105.77178 C68.8364154,104.113412 70.1753989,101.711786 71.8135171,101.711786 C73.4658797,101.711786 75.4885995,104.113412 75.4885995,105.77178 Z" id="Shape"></path>
                    <path d="M89.2487918,105.77178 C89.2487918,107.430147 87.2403165,108.774886 85.5879539,108.774886 C83.9355913,108.774886 82.5966077,107.430147 82.5966077,105.77178 C82.5966077,104.113412 83.9355913,101.711786 85.5879539,101.711786 C87.2403165,101.711786 89.2487918,104.113412 89.2487918,105.77178 Z" id="Shape"></path>
                    <path d="M103.023229,105.77178 C103.023229,107.430147 101.000509,108.774886 99.3481462,108.774886 C97.6957836,108.774886 96.3568,107.430147 96.3568,105.77178 C96.3568,104.113412 97.6957836,101.711786 99.3481462,101.711786 C101.000509,101.711786 103.023229,104.113412 103.023229,105.77178 Z" id="Shape"></path>
                    <path d="M116.783421,105.77178 C116.783421,107.430147 114.760701,108.774886 113.122583,108.774886 C111.47022,108.774886 110.131237,107.430147 110.131237,105.77178 C110.131237,104.113412 111.47022,101.711786 113.122583,101.711786 C114.760701,101.711786 116.783421,104.113412 116.783421,105.77178 Z" id="Shape"></path>
                    <path d="M130.543613,105.77178 C130.543613,107.430147 128.535138,108.774886 126.882775,108.774886 C125.230413,108.774886 123.891429,107.430147 123.891429,105.77178 C123.891429,104.113412 125.230413,101.711786 126.882775,101.711786 C128.535138,101.711786 130.543613,104.113412 130.543613,105.77178 Z" id="Shape"></path>
                    <path d="M144.31805,105.77178 C144.31805,107.430147 142.29533,108.774886 140.642968,108.774886 C139.004849,108.774886 137.665866,107.430147 137.665866,105.77178 C137.665866,104.113412 139.004849,101.711786 140.642968,101.711786 C142.29533,101.711786 144.31805,104.113412 144.31805,105.77178 Z" id="Shape"></path>
                    <path d="M158.078242,105.77178 C158.078242,107.430147 156.069767,108.774886 154.417404,108.774886 C152.765042,108.774886 151.426058,107.430147 151.426058,105.77178 C151.426058,104.113412 152.765042,101.711786 154.417404,101.711786 C156.069767,101.711786 158.078242,104.113412 158.078242,105.77178 Z" id="Shape"></path>
                    <path d="M47.9539704,118.483068 C47.9539704,120.141436 45.9312506,121.486174 44.2931325,121.486174 C42.6407698,121.486174 41.3017863,120.141436 41.3017863,118.483068 C41.3017863,116.8247 42.6407698,114.423074 44.2931325,114.423074 C45.9312506,114.423074 47.9539704,116.8247 47.9539704,118.483068 Z" id="Shape"></path>
                    <path d="M61.7141627,118.483068 C61.7141627,120.141436 59.7056874,121.486174 58.0533248,121.486174 C56.4009621,121.486174 55.0619786,120.141436 55.0619786,118.483068 C55.0619786,116.8247 56.4009621,114.423074 58.0533248,114.423074 C59.7056874,114.423074 61.7141627,116.8247 61.7141627,118.483068 Z" id="Shape"></path>
                    <path d="M75.4885995,118.483068 C75.4885995,120.141436 73.4658797,121.486174 71.8135171,121.486174 C70.1753989,121.486174 68.8364154,120.141436 68.8364154,118.483068 C68.8364154,116.8247 70.1753989,114.423074 71.8135171,114.423074 C73.4658797,114.423074 75.4885995,116.8247 75.4885995,118.483068 Z" id="Shape"></path>
                    <path d="M89.2487918,118.483068 C89.2487918,120.141436 87.2403165,121.486174 85.5879539,121.486174 C83.9355913,121.486174 82.5966077,120.141436 82.5966077,118.483068 C82.5966077,116.8247 83.9355913,114.423074 85.5879539,114.423074 C87.2403165,114.423074 89.2487918,116.8247 89.2487918,118.483068 Z" id="Shape"></path>
                    <path d="M103.023229,118.483068 C103.023229,120.141436 101.000509,121.486174 99.3481462,121.486174 C97.6957836,121.486174 96.3568,120.141436 96.3568,118.483068 C96.3568,116.8247 97.6957836,114.423074 99.3481462,114.423074 C101.000509,114.423074 103.023229,116.8247 103.023229,118.483068 Z" id="Shape"></path>
                    <path d="M116.783421,118.483068 C116.783421,120.141436 114.760701,121.486174 113.122583,121.486174 C111.47022,121.486174 110.131237,120.141436 110.131237,118.483068 C110.131237,116.8247 111.47022,114.423074 113.122583,114.423074 C114.760701,114.423074 116.783421,116.8247 116.783421,118.483068 Z" id="Shape"></path>
                    <path d="M130.543613,118.483068 C130.543613,120.141436 128.535138,121.486174 126.882775,121.486174 C125.230413,121.486174 123.891429,120.141436 123.891429,118.483068 C123.891429,116.8247 125.230413,114.423074 126.882775,114.423074 C128.535138,114.423074 130.543613,116.8247 130.543613,118.483068 Z" id="Shape"></path>
                    <path d="M144.31805,118.483068 C144.31805,120.141436 142.29533,121.486174 140.642968,121.486174 C139.004849,121.486174 137.665866,120.141436 137.665866,118.483068 C137.665866,116.8247 139.004849,114.423074 140.642968,114.423074 C142.29533,114.423074 144.31805,116.8247 144.31805,118.483068 Z" id="Shape"></path>
                    <path d="M47.9539704,131.192924 C47.9539704,132.851292 45.9312506,134.19603 44.2931325,134.19603 C42.6407698,134.19603 41.3017863,132.851292 41.3017863,131.192924 C41.3017863,129.534556 42.6407698,127.13293 44.2931325,127.13293 C45.9312506,127.13293 47.9539704,129.534556 47.9539704,131.192924 Z" id="Shape"></path>
                    <path d="M61.7141627,131.192924 C61.7141627,132.851292 59.7056874,134.19603 58.0533248,134.19603 C56.4009621,134.19603 55.0619786,132.851292 55.0619786,131.192924 C55.0619786,129.534556 56.4009621,127.13293 58.0533248,127.13293 C59.7056874,127.13293 61.7141627,129.534556 61.7141627,131.192924 Z" id="Shape"></path>
                    <path d="M75.4885995,131.192924 C75.4885995,132.851292 73.4658797,134.19603 71.8135171,134.19603 C70.1753989,134.19603 68.8364154,132.851292 68.8364154,131.192924 C68.8364154,129.534556 70.1753989,127.13293 71.8135171,127.13293 C73.4658797,127.13293 75.4885995,129.534556 75.4885995,131.192924 Z" id="Shape"></path>
                    <path d="M89.2487918,131.192924 C89.2487918,132.851292 87.2403165,134.19603 85.5879539,134.19603 C83.9355913,134.19603 82.5966077,132.851292 82.5966077,131.192924 C82.5966077,129.534556 83.9355913,127.13293 85.5879539,127.13293 C87.2403165,127.13293 89.2487918,129.534556 89.2487918,131.192924 Z" id="Shape"></path>
                    <path d="M103.023229,131.192924 C103.023229,132.851292 101.000509,134.19603 99.3481462,134.19603 C97.6957836,134.19603 96.3568,132.851292 96.3568,131.192924 C96.3568,129.534556 97.6957836,127.13293 99.3481462,127.13293 C101.000509,127.13293 103.023229,129.534556 103.023229,131.192924 Z" id="Shape"></path>
                    <path d="M116.783421,131.192924 C116.783421,132.851292 114.760701,134.19603 113.122583,134.19603 C111.47022,134.19603 110.131237,132.851292 110.131237,131.192924 C110.131237,129.534556 111.47022,127.13293 113.122583,127.13293 C114.760701,127.13293 116.783421,129.534556 116.783421,131.192924 Z" id="Shape"></path>
                    <path d="M130.543613,131.192924 C130.543613,132.851292 128.535138,134.19603 126.882775,134.19603 C125.230413,134.19603 123.891429,132.851292 123.891429,131.192924 C123.891429,129.534556 125.230413,127.13293 126.882775,127.13293 C128.535138,127.13293 130.543613,129.534556 130.543613,131.192924 Z" id="Shape"></path>
                    <path d="M34.1937781,143.904212 C34.1937781,145.56258 32.1710583,146.905886 30.5186957,146.905886 C28.866333,146.905886 27.541594,145.56258 27.541594,143.904212 C27.541594,142.245844 28.866333,139.844219 30.5186957,139.844219 C32.1710583,139.844219 34.1937781,142.245844 34.1937781,143.904212 Z" id="Shape"></path>
                    <path d="M61.7141627,143.904212 C61.7141627,145.56258 59.7056874,146.905886 58.0533248,146.905886 C56.4009621,146.905886 55.0619786,145.56258 55.0619786,143.904212 C55.0619786,142.245844 56.4009621,139.844219 58.0533248,139.844219 C59.7056874,139.844219 61.7141627,142.245844 61.7141627,143.904212 Z" id="Shape"></path>
                    <path d="M75.4885995,143.904212 C75.4885995,145.56258 73.4658797,146.905886 71.8135171,146.905886 C70.1753989,146.905886 68.8364154,145.56258 68.8364154,143.904212 C68.8364154,142.245844 70.1753989,139.844219 71.8135171,139.844219 C73.4658797,139.844219 75.4885995,142.245844 75.4885995,143.904212 Z" id="Shape"></path>
                    <path d="M89.2487918,143.904212 C89.2487918,145.56258 87.2403165,146.905886 85.5879539,146.905886 C83.9355913,146.905886 82.5966077,145.56258 82.5966077,143.904212 C82.5966077,142.245844 83.9355913,139.844219 85.5879539,139.844219 C87.2403165,139.844219 89.2487918,142.245844 89.2487918,143.904212 Z" id="Shape"></path>
                    <path d="M103.023229,143.904212 C103.023229,145.56258 101.000509,146.905886 99.3481462,146.905886 C97.6957836,146.905886 96.3568,145.56258 96.3568,143.904212 C96.3568,142.245844 97.6957836,139.844219 99.3481462,139.844219 C101.000509,139.844219 103.023229,142.245844 103.023229,143.904212 Z" id="Shape"></path>
                    <path d="M116.783421,143.904212 C116.783421,145.56258 114.760701,146.905886 113.122583,146.905886 C111.47022,146.905886 110.131237,145.56258 110.131237,143.904212 C110.131237,142.245844 111.47022,139.844219 113.122583,139.844219 C114.760701,139.844219 116.783421,142.245844 116.783421,143.904212 Z" id="Shape"></path>
                    <path d="M158.078242,143.904212 C158.078242,145.56258 156.069767,146.905886 154.417404,146.905886 C152.765042,146.905886 151.426058,145.56258 151.426058,143.904212 C151.426058,142.245844 152.765042,139.844219 154.417404,139.844219 C156.069767,139.844219 158.078242,142.245844 158.078242,143.904212 Z" id="Shape"></path>
                    <path d="M34.1937781,156.6155 C34.1937781,158.273868 32.1710583,159.617174 30.5186957,159.617174 C28.866333,159.617174 27.541594,158.273868 27.541594,156.6155 C27.541594,154.957132 28.866333,152.555507 30.5186957,152.555507 C32.1710583,152.555507 34.1937781,154.957132 34.1937781,156.6155 Z" id="Shape"></path>
                    <path d="M47.9539704,156.6155 C47.9539704,158.273868 45.9312506,159.617174 44.2931325,159.617174 C42.6407698,159.617174 41.3017863,158.273868 41.3017863,156.6155 C41.3017863,154.957132 42.6407698,152.555507 44.2931325,152.555507 C45.9312506,152.555507 47.9539704,154.957132 47.9539704,156.6155 Z" id="Shape"></path>
                    <path d="M61.7141627,156.6155 C61.7141627,158.273868 59.7056874,159.617174 58.0533248,159.617174 C56.4009621,159.617174 55.0619786,158.273868 55.0619786,156.6155 C55.0619786,154.957132 56.4009621,152.555507 58.0533248,152.555507 C59.7056874,152.555507 61.7141627,154.957132 61.7141627,156.6155 Z" id="Shape"></path>
                    <path d="M116.783421,156.6155 C116.783421,158.273868 114.760701,159.617174 113.122583,159.617174 C111.47022,159.617174 110.131237,158.273868 110.131237,156.6155 C110.131237,154.957132 111.47022,152.555507 113.122583,152.555507 C114.760701,152.555507 116.783421,154.957132 116.783421,156.6155 Z" id="Shape"></path>
                    <path d="M144.31805,156.6155 C144.31805,158.273868 142.29533,159.617174 140.642968,159.617174 C139.004849,159.617174 137.665866,158.273868 137.665866,156.6155 C137.665866,154.957132 139.004849,152.555507 140.642968,152.555507 C142.29533,152.555507 144.31805,154.957132 144.31805,156.6155 Z" id="Shape"></path>
                    <path d="M158.078242,156.6155 C158.078242,158.273868 156.069767,159.617174 154.417404,159.617174 C152.765042,159.617174 151.426058,158.273868 151.426058,156.6155 C151.426058,154.957132 152.765042,152.555507 154.417404,152.555507 C156.069767,152.555507 158.078242,154.957132 158.078242,156.6155 Z" id="Shape"></path>
                    <path d="M158.078242,130.272086 C158.078242,131.930454 156.069767,133.275192 154.417404,133.275192 C152.765042,133.275192 151.426058,131.930454 151.426058,130.272086 C151.426058,128.613718 152.765042,126.213524 154.417404,126.213524 C156.069767,126.213524 158.078242,128.613718 158.078242,130.272086 Z" id="Shape"></path>
                    <path d="M144.31805,142.981942 C144.31805,144.64031 142.29533,145.985048 140.642968,145.985048 C139.004849,145.985048 137.665866,144.64031 137.665866,142.981942 C137.665866,141.323574 139.004849,138.92338 140.642968,138.92338 C142.29533,138.92338 144.31805,141.323574 144.31805,142.981942 Z" id="Shape"></path>
                    <path d="M130.543613,155.69323 C130.543613,157.351598 128.535138,158.696336 126.882775,158.696336 C125.230413,158.696336 123.891429,157.351598 123.891429,155.69323 C123.891429,154.034862 125.230413,151.634669 126.882775,151.634669 C128.535138,151.634669 130.543613,154.034862 130.543613,155.69323 Z" id="Shape"></path>
                </g>
            </g>
        </g>
    </g>
</svg>